<svg width="132" height="70" viewBox="0 0 132 70" fill="none" xmlns="http://www.w3.org/2000/svg">
<path d="M41.082 16.382L33.087 45H26.322L20.951 24.623L15.334 45L8.61 45.041L0.902 16.382H7.052L12.095 38.604L17.917 16.382H24.313L29.807 38.481L34.891 16.382H41.082ZM43.354 33.561C43.354 31.265 43.805 29.2287 44.707 27.452C45.6363 25.6753 46.88 24.3087 48.438 23.352C50.0233 22.3953 51.7863 21.917 53.727 21.917C55.4216 21.917 56.8976 22.2587 58.155 22.942C59.4396 23.6253 60.4646 24.4863 61.23 25.525V22.286H67.011V45H61.23V41.679C60.492 42.745 59.467 43.6333 58.155 44.344C56.8703 45.0273 55.3806 45.369 53.686 45.369C51.7726 45.369 50.0233 44.877 48.438 43.893C46.88 42.909 45.6363 41.5287 44.707 39.752C43.805 37.948 43.354 35.8843 43.354 33.561ZM61.23 33.643C61.23 32.249 60.9566 31.06 60.41 30.076C59.8633 29.0647 59.1253 28.2993 58.196 27.78C57.2666 27.2333 56.269 26.96 55.203 26.96C54.137 26.96 53.153 27.2197 52.251 27.739C51.349 28.2583 50.611 29.0237 50.037 30.035C49.4903 31.019 49.217 32.1943 49.217 33.561C49.217 34.9277 49.4903 36.1303 50.037 37.169C50.611 38.1803 51.349 38.9593 52.251 39.506C53.1803 40.0527 54.1643 40.326 55.203 40.326C56.269 40.326 57.2666 40.0663 58.196 39.547C59.1253 39.0003 59.8633 38.235 60.41 37.251C60.9566 36.2397 61.23 35.037 61.23 33.643ZM94.3471 22.286L80.2841 55.742H74.1751L79.0951 44.426L69.9931 22.286H76.4301L82.2931 38.153L88.2381 22.286H94.3471ZM104.124 27.001V37.989C104.124 38.7543 104.302 39.3147 104.657 39.67C105.04 39.998 105.669 40.162 106.543 40.162H109.208V45H105.6C100.762 45 98.3433 42.6493 98.3433 37.948V27.001H95.6373V22.286H98.3433V16.669H104.124V22.286H109.208V27.001H104.124Z" fill="black"/>
<circle cx="124.5" cy="15.5" r="7.5" fill="#E0342A"/>
</svg>
